<?xml version="1.0" encoding="UTF-8"?>
<svg id="_图层_1" data-name="图层_1" xmlns="http://www.w3.org/2000/svg" version="1.1" viewBox="0 0 2500 1000">
  <!-- Generator: Adobe Illustrator 29.0.0, SVG Export Plug-In . SVG Version: 2.1.0 Build 186)  -->
  <defs>
    <style>
      .st0 {
        fill: #1f70c1;
      }
    </style>
  </defs>
  <path class="st0" d="M0,0v68.4h486.6V0H0ZM1695.3,0v68.4h639.6l.4-68.4h-640ZM539.1,0v68.4h394.6V0h-394.6ZM1259.5,0l-.6,68.4h391.5V0h-390.8ZM0,133.1v68.4h486.6v-68.4H0ZM1695.3,133.2v68.3h726.8v-68.3h-726.8ZM539.1,133.2v68.3h442.6l-.2-68.3h-442.5ZM1209.7,133.2l.9,68.3h439.7s0-68.3,0-68.3h-440.6ZM139.8,266.1v68.5h210.7v-68.5h-210.7ZM1835.2,266.1v68.5h210.7v-68.5h-210.7ZM2250.9,266.1v68.5h224.1v-68.5h-224.1ZM679,266.1v68.5h349.3l-.5-68.5h-348.7ZM1163.8,266.1l-.2,68.5h350.7v-68.5h-350.5ZM139.8,399.3v68.4h210.7v-68.4h-210.7,0ZM1835.2,399.3v68.4l571.1-2.3v-66.2h-571.1ZM1077.7,467.7l-1.1-68.4h-397.6v68.4h835.3v-68.4h-391.8l-1.1,68.4M139.8,532.3v68.4h210.7v-68.4h-210.7ZM1835.2,532.3v68.4l571.1-3.2v-65.2h-571.1ZM679,532.3v68.4h210.7v-68.4h-210.7ZM953.2,532.3l.3,68.4h289.5l.8-68.4h-290.6ZM1303.5,532.3v68.4h210.7v-68.4h-210.7ZM139.8,665.4v68.4h210.7v-68.4h-210.7ZM1835.2,665.4v68.4h210.7v-68.4h-210.7ZM2250.9,665.4v68.4h218.4v-68.4h-218.4ZM679,665.4v68.4h210.7v-68.4h-210.7ZM999.2,665.4l1.4,68.4h194l2.2-68.4h-197.6ZM1303.5,665.4v68.4h210.7v-68.4h-210.7ZM3.8,798.4v68.5h486.6v-68.5H3.8ZM1695.3,798.4v68.5h749.1l.6-68.6h-749.8q0,0,0,0ZM543,798.4v68.5h346.8v-68.5h-346.8ZM1047.7,798.4l1.5,68.6h98.7l1.3-68.5h-101.6ZM1303.5,798.4v68.5h350.6v-68.5h-350.6ZM3.8,931.6v68.4h486.6v-68.4H3.8ZM1695.3,931.6v68.3h664.7c0,0,0-68.3,0-68.3h-664.7ZM543,931.6v68.4h346.8v-68.4h-346.8ZM1303.5,931.6v68.4h350.6v-68.4h-350.6Z"/>
</svg>